:SAMPLES-PER-SECOND 30
:FULLY-SPECIFIED
:DEGREES
246
root  -80.7321 39.4508 -5.19143 36.2803 83.5386 35.0848
RightUpLeg  10.8743 -11.1317 -6.84304
RightLeg  12.2001 -2.1022 0.27294
RightFoot  -21.9555 -0.14388 0.0528486
RightToes  -3.0268e-009 0 -3.6325e-017
Spine  6.6416 3.18481 5.78982
Spine1  4.35677 5.52532 -8.74043
HEad  -17.8862 -3.60926 -3.00129
LeftShoulder1  -0.377889 4.44203 -34.1201
LeftArm  -1.49064 18.52 -38.4368
LeftForeArm  33.8985 -11.7293 -7.75648
LeftHand  -0.115647 10.1363 -1.39955
RightShoulder  -1.10416 -6.5205 30.0789
RightArm  15.5838 20.4262 42.7464
RightForeArm  10.9309 32.1881 6.48175
RightHand  -0.408286 5.88771 -4.53318
LeftUpLeg  -22.5098 4.28093 -6.03978
LeftLeg  12.5008 8.06623 1.48011
LeftFoot  0.692242 0.000139743 0.0055176
LeftToes  2.52475e-009 -1.26109e-010 3.16044e-011
247
root  -79.7517 39.1832 -5.225 38.2723 82.8822 37.5825
RightUpLeg  12.321 -10.7829 -7.9201
RightLeg  13.7339 -1.56959 -0.402912
RightFoot  -23.4987 0.0148179 1.61235
RightToes  -3.0268e-009 0 -3.6325e-017
Spine  6.70661 3.2951 4.57492
Spine1  4.17598 5.69043 -9.08667
HEad  -17.5555 -4.01066 -1.83918
LeftShoulder1  -0.404002 4.50581 -34.1718
LeftArm  -1.55615 18.6512 -37.7868
LeftForeArm  35.4917 -10.8994 -8.07986
LeftHand  -0.155939 10.9579 -1.92195
RightShoulder  -1.16285 -6.65553 30.3719
RightArm  18.2829 20.277 43.16
RightForeArm  9.91925 31.3434 6.32363
RightHand  -0.397402 6.47463 -4.2221
LeftUpLeg  -22.7148 5.9988 -7.48714
LeftLeg  16.3604 7.02846 2.45191
LeftFoot  2.08719 -0.257081 2.10822
LeftToes  2.52475e-009 -1.26109e-010 3.16044e-011
248
root  -78.7657 38.9492 -5.25729 45.0126 82.4314 45.2473
RightUpLeg  13.5148 -8.88747 -8.74433
RightLeg  16.6086 -3.20134 -1.59605
RightFoot  -24.6971 0.408262 4.89681
RightToes  -3.0268e-009 0 -3.6325e-017
Spine  7.1887 3.17693 2.67504
Spine1  4.17774 5.54649 -9.17811
HEad  -16.7589 -4.33724 -1.09593
LeftShoulder1  -0.435014 4.5773 -34.3221
LeftArm  -3.39656 17.6004 -37.27
LeftForeArm  38.2182 -9.17573 -8.22544
LeftHand  -0.197852 10.767 -2.87715
RightShoulder  -1.2109 -6.72038 31.1306
RightArm  20.6027 19.1767 43.5192
RightForeArm  8.84604 29.9493 6.04562
RightHand  -0.400163 6.29648 -4.31933
LeftUpLeg  -22.5712 6.18038 -8.90089
LeftLeg  20.6752 6.01959 2.87095
LeftFoot  1.21773 -0.560806 5.03645
LeftToes  2.52475e-009 -1.26109e-010 3.16044e-011
249
root  -77.7747 38.79 -5.34415 49.8381 82.2154 50.9881
RightUpLeg  14.0165 -6.90618 -9.67904
RightLeg  20.9782 -4.02249 -1.91008
RightFoot  -24.5753 0.91948 9.39452
RightToes  -3.0268e-009 0 -3.6325e-017
Spine  7.14414 2.8564 1.79527
Spine1  5.15277 5.37549 -9.86898
HEad  -16.2015 -4.31391 -0.680351
LeftShoulder1  -0.58573 4.92855 -34.9467
LeftArm  -3.88055 15.6733 -36.549
LeftForeArm  39.0034 -8.01343 -8.4069
LeftHand  -0.176879 11.022 -2.27915
RightShoulder  -1.21683 -6.72208 31.2813
RightArm  22.8791 17.8129 45.1707
RightForeArm  6.69585 26.4408 5.29261
RightHand  -0.417762 7.66277 -4.06364
LeftUpLeg  -21.5004 5.63327 -9.75572
LeftLeg  23.5974 6.6073 3.48098
LeftFoot  -0.642446 -0.573603 6.15039
LeftToes  2.52475e-009 -1.26109e-010 3.16044e-011
250
root  -76.908 38.772 -5.4512 49.0662 81.539 50.5658
RightUpLeg  11.7581 -4.90652 -10.4597
RightLeg  28.4298 -3.65673 -2.36393
RightFoot  -21.8862 1.21338 15.0225
RightToes  -3.0268e-009 0 -3.6325e-017
Spine  7.47374 3.04896 0.963613
Spine1  5.14113 5.55235 -10.7847
HEad  -15.0483 -4.5579 -1.47254
LeftShoulder1  -0.584645 4.91983 -35.1077
LeftArm  -4.63357 13.8715 -36.55
LeftForeArm  39.8124 -6.92939 -8.36337
LeftHand  -0.122496 9.95882 -1.65812
RightShoulder  -1.27915 -6.83101 31.9318
RightArm  25.6584 15.6678 45.9817
RightForeArm  5.70506 23.1026 4.86576
RightHand  -0.322745 6.29692 -3.54316
LeftUpLeg  -20.273 6.47299 -10.4492
LeftLeg  24.82 6.42449 3.57466
LeftFoot  -2.74877 -0.453727 6.24136
LeftToes  2.52475e-009 -1.26109e-010 3.16044e-011
251
root  -76.0281 38.8355 -5.54539 51.0776 81.0884 52.7214
RightUpLeg  7.75999 -4.06951 -11.7297
RightLeg  37.8115 -2.5888 -2.41125
RightFoot  -15.734 0.663897 17.8854
RightToes  -3.0268e-009 0 -3.6325e-017
Spine  7.81114 3.01688 -1.08879
Spine1  4.20637 4.94213 -9.87379
HEad  -13.2056 -3.9238 -1.50373
LeftShoulder1  -0.559342 4.8568 -35.1303
LeftArm  -5.18988 13.0342 -37.1601
LeftForeArm  39.6467 -7.09173 -8.08996
LeftHand  -0.117133 9.46761 -1.76664
RightShoulder  -1.23044 -6.68081 32.1778
RightArm  26.0413 13.3267 46.9733
RightForeArm  6.40309 17.965 5.77656
RightHand  -0.30744 6.3028 -3.38863
LeftUpLeg  -18.6521 6.94285 -11.1431
LeftLeg  24.9182 6.0971 3.4329
LeftFoot  -4.35552 -0.333801 5.89831
LeftToes  2.52475e-009 -1.26109e-010 3.16044e-011
252
root  -75.1527 39.011 -5.63182 52.5556 81.1206 54.3576
RightUpLeg  2.36926 -3.79424 -12.5491
RightLeg  47.8171 -1.17646 -1.7004
RightFoot  -6.03686 -0.617033 12.0956
RightToes  -3.0268e-009 0 -3.6325e-017
Spine  7.79972 2.68842 -2.40898
Spine1  4.2785 4.28358 -8.76507
HEad  -13.0392 -3.73391 -1.91189
LeftShoulder1  -0.472665 4.66768 -34.4565
LeftArm  -3.36133 11.919 -38.3558
LeftForeArm  37.6992 -9.32559 -8.29666
LeftHand  -0.129649 9.53077 -2.07226
RightShoulder  -1.37282 -6.99321 32.8266
RightArm  22.4229 12.1296 47.5925
RightForeArm  12.0235 12.762 7.76892
RightHand  -0.244731 4.85681 -3.06532
LeftUpLeg  -16.3944 7.80577 -11.3986
LeftLeg  23.8049 5.48119 2.98969
LeftFoot  -5.48783 -0.252852 5.58151
LeftToes  2.52475e-009 -1.26109e-010 3.16044e-011
253
root  -74.3634 39.1076 -5.69461 52.3814 80.8554 54.9211
RightUpLeg  -2.21156 -2.89707 -13.2703
RightLeg  55.5303 0.391024 0.194424
RightFoot  -1.64525 -0.799355 9.08464
RightToes  -3.0268e-009 0 -3.6325e-017
Spine  8.51325 2.54331 -4.429
Spine1  4.51021 3.48799 -7.09828
HEad  -13.0195 -2.42149 -1.98708
LeftShoulder1  -0.518578 4.76331 -34.9972
LeftArm  0.886908 9.4479 -38.5494
LeftForeArm  33.4256 -11.4924 -8.51073
LeftHand  -0.111518 9.66883 -1.50044
RightShoulder  -1.2738 -6.76329 32.5432
RightArm  19.0289 9.58974 48.2384
RightForeArm  16.9761 9.48585 8.44308
RightHand  -0.187598 4.26396 -2.54424
LeftUpLeg  -13.8986 8.22403 -11.5758
LeftLeg  23.2052 5.37938 2.85311
LeftFoot  -6.73551 -0.169448 5.22972
LeftToes  2.52475e-009 -1.26109e-010 3.16044e-011
254
root  -73.5791 39.2447 -5.73733 50.3585 81.0971 53.2542
RightUpLeg  -6.54709 -2.18064 -13.1127
RightLeg  60.3099 1.5424 2.42317
RightFoot  -2.72555 -0.652933 8.41387
RightToes  -3.0268e-009 0 -3.6325e-017
Spine  8.6434 2.31088 -5.52954
Spine1  4.97136 2.79437 -5.72149
HEad  -12.9696 -1.99663 -1.85983
LeftShoulder1  -0.567151 4.87403 -35.2052
LeftArm  6.97498 7.11185 -38.9875
LeftForeArm  27.5881 -15.0603 -7.66463
LeftHand  -0.0710924 9.36441 -0.556628
RightShoulder  -1.14978 -6.44931 32.4747
RightArm  17.8689 6.50651 48.218
RightForeArm  18.8992 8.01829 8.56687
RightHand  -0.154634 2.72984 -2.41675
LeftUpLeg  -11.637 8.56337 -11.0284
LeftLeg  22.2714 5.28644 2.46875
LeftFoot  -7.67428 -0.120023 5.19241
LeftToes  2.52475e-009 -1.26109e-010 3.16044e-011
255
root  -72.7743 39.378 -5.77914 49.1078 81.5898 52.141
RightUpLeg  -10.7245 -1.93112 -12.8318
RightLeg  62.2063 2.17009 3.92662
RightFoot  -2.90379 -0.646578 8.47517
RightToes  -3.0268e-009 0 -3.6325e-017
Spine  8.74291 2.0224 -6.35825
Spine1  5.04739 2.08368 -4.28287
HEad  -12.7655 -1.24287 -1.76331
LeftShoulder1  -0.596587 4.93906 -35.3773
LeftArm  11.1409 4.78218 -39.5546
LeftForeArm  22.8344 -18.1575 -6.14304
LeftHand  -0.0515366 9.2666 -0.0340996
RightShoulder  -1.30812 -6.81775 32.9282
RightArm  18.1502 3.40186 47.3603
RightForeArm  20.0657 7.87467 8.61308
RightHand  -0.111563 2.28818 -1.8849
LeftUpLeg  -9.49982 7.31644 -10.346
LeftLeg  21.2419 6.48398 2.38606
LeftFoot  -8.56397 -0.0690184 4.94774
LeftToes  2.52475e-009 -1.26109e-010 3.16044e-011
256
root  -71.9836 39.4786 -5.78193 46.5711 82.091 49.3616
RightUpLeg  -15.0125 -1.31232 -11.9228
RightLeg  61.6008 1.99018 3.48622
RightFoot  -3.60016 -0.580135 8.21723
RightToes  -3.0268e-009 0 -3.6325e-017
Spine  8.83822 1.74496 -7.01613
Spine1  4.56991 1.48052 -3.16364
HEad  -12.4904 -0.794043 -1.66106
LeftShoulder1  -0.603531 4.97021 -34.9774
LeftArm  12.8645 3.59897 -40.3214
LeftForeArm  19.4613 -21.7818 -4.37563
LeftHand  -0.0260999 9.38059 0.70015
RightShoulder  -1.44114 -7.10216 33.5259
RightArm  20.2433 0.0240042 45.8406
RightForeArm  20.3012 9.09557 8.71725
RightHand  -0.0489074 2.71071 -0.914454
LeftUpLeg  -7.92362 6.6624 -9.46062
LeftLeg  20.495 7.03202 2.00506
LeftFoot  -9.71602 -0.00599348 4.5852
LeftToes  2.52475e-009 -1.26109e-010 3.16044e-011
257
root  -71.1633 39.5844 -5.83833 43.1119 82.3837 46.0517
RightUpLeg  -17.9894 -0.909308 -11.4591
RightLeg  57.9445 1.79793 2.66257
RightFoot  -4.91542 -0.528149 8.78246
RightToes  -3.0268e-009 0 -3.6325e-017
Spine  8.97076 1.26812 -7.1218
Spine1  4.58187 0.873535 -2.48149
HEad  -12.5498 -0.452645 -1.59107
LeftShoulder1  -0.642011 5.07662 -34.6362
LeftArm  11.2718 2.04419 -40.7859
LeftForeArm  19.2413 -24.4631 -4.13681
LeftHand  -0.00640884 8.83107 1.3706
RightShoulder  -1.43302 -7.09623 33.3609
RightArm  22.8329 -2.98919 45.0723
RightForeArm  20.8086 10.4376 8.67381
RightHand  0.100096 1.76686 1.35653
LeftUpLeg  -5.70569 6.12465 -8.76634
LeftLeg  19.3358 7.52223 1.57388
LeftFoot  -10.5698 0.0322496 4.59385
LeftToes  2.52475e-009 -1.26109e-010 3.16044e-011
258
root  -70.3551 39.6563 -5.85043 41.1492 82.6207 44.1096
RightUpLeg  -20.2994 -0.981204 -10.9938
RightLeg  52.0438 1.47782 1.68548
RightFoot  -5.47076 -0.480516 8.62757
RightToes  -3.0268e-009 0 -3.6325e-017
Spine  9.09345 0.783669 -7.79514
Spine1  4.45131 0.133234 -1.18507
HEad  -12.7234 0.812935 -1.64769
LeftShoulder1  -0.726482 5.2778 -34.7693
LeftArm  9.64706 -0.137158 -40.736
LeftForeArm  19.1113 -26.2794 -4.62321
LeftHand  0.0422359 8.78392 2.74889
RightShoulder  -1.38094 -6.98344 33.1563
RightArm  25.1025 -5.79182 44.1326
RightForeArm  20.5826 11.9702 8.33643
RightHand  0.0346856 -0.971508 1.0446
LeftUpLeg  -3.74595 5.62308 -8.35578
LeftLeg  18.315 7.98284 1.40524
LeftFoot  -11.39 0.070487 4.22801
LeftToes  2.52475e-009 -1.26109e-010 3.16044e-011
